<svg width="135" height="203" viewBox="0 0 135 203" fill="none" xmlns="http://www.w3.org/2000/svg">
<path d="M61.5829 112H73.1585L82.5927 202.11H52L61.5829 112Z" fill="#93642D"/>
<path d="M61.5 112H73L78 160.5H56.5L61.5 112Z" fill="#714D22"/>
<path fill-rule="evenodd" clip-rule="evenodd" d="M19.1103 69.4736C19.1103 56.0408 29.9997 45.1514 43.4325 45.1514C56.8653 45.1514 67.7547 56.0408 67.7547 69.4736V71.2109C67.7547 72.1238 67.7044 73.025 67.6064 73.9118C77.7293 76.854 85.1278 86.1982 85.1278 97.2704V99.0077C85.1278 112.44 74.2383 123.33 60.8055 123.33C53.5412 123.33 47.0206 120.145 42.5639 115.096C38.1072 120.145 31.5866 123.33 24.3222 123.33C10.8894 123.33 0 112.44 0 99.0077V97.2704C0 85.5893 8.23446 75.8316 19.2152 73.4852C19.1458 72.7364 19.1103 71.9778 19.1103 71.2109V69.4736Z" fill="#66A865"/>
<path fill-rule="evenodd" clip-rule="evenodd" d="M73.7964 143.669C65.5519 153.585 50.8299 154.94 40.9138 146.695C30.9976 138.451 29.6424 123.729 37.8869 113.813L38.9531 112.53C39.5134 111.856 40.1037 111.222 40.7202 110.628C35.0533 102.243 35.3268 90.8038 42.1224 82.6303L43.1887 81.3478C51.4331 71.4317 66.1552 70.0765 76.0713 78.3209C81.4339 82.7795 84.2928 89.1325 84.4836 95.5953C90.8727 94.6032 97.6409 96.2542 103.003 100.713C112.92 108.957 114.275 123.679 106.03 133.595L104.964 134.878C97.7948 143.501 85.7272 145.65 76.1811 140.643C75.7728 141.238 75.3334 141.82 74.8627 142.386L73.7964 143.669Z" fill="#66A865"/>
<path fill-rule="evenodd" clip-rule="evenodd" d="M67.9672 61.6364C67.9672 48.0544 78.9776 37.044 92.5596 37.044C106.142 37.044 117.152 48.0544 117.152 61.6364V63.393C117.152 64.3161 117.101 65.2273 117.002 66.1239C127.238 69.0989 134.718 78.5469 134.718 89.7421V91.4987C134.718 105.081 123.708 116.091 110.126 116.091C102.781 116.091 96.1876 112.871 91.6814 107.766C87.1751 112.871 80.5821 116.091 73.237 116.091C59.655 116.091 48.6445 105.081 48.6445 91.4987V89.7421C48.6445 77.9313 56.9705 68.0651 68.0733 65.6927C68.0031 64.9356 67.9672 64.1685 67.9672 63.393V61.6364Z" fill="#66A865"/>
<path fill-rule="evenodd" clip-rule="evenodd" d="M55.8231 24.8563C60.0858 14.5595 71.8886 9.66789 82.1854 13.9306C92.4822 18.1933 97.3738 29.996 93.1111 40.2928L92.5598 41.6245C92.2701 42.3243 91.9455 42.9991 91.589 43.6478C98.415 49.1155 101.121 58.626 97.6073 67.1133L97.056 68.445C92.7934 78.7417 80.9906 83.6333 70.6938 79.3707C65.1253 77.0654 61.1377 72.555 59.3238 67.2701C54.3052 69.7265 48.2963 70.0985 42.7278 67.7932C32.431 63.5306 27.5394 51.7278 31.8021 41.431L32.3534 40.0993C36.0602 31.1453 45.4688 26.2786 54.6305 27.9647C54.8149 27.3687 55.0285 26.7759 55.2718 26.188L55.8231 24.8563Z" fill="#83C082"/>
<path fill-rule="evenodd" clip-rule="evenodd" d="M6.09079 81.5187C2.30038 85.8077 0 91.4444 0 97.6183V99.3556C0 112.788 10.8894 123.678 24.3222 123.678C27.6241 123.678 30.7723 123.02 33.6429 121.828C30.7574 130.659 33.3356 140.743 40.9138 147.043C50.83 155.288 65.552 153.933 73.7965 144.016L74.8628 142.734C75.3334 142.168 75.7729 141.586 76.1812 140.991C85.7273 145.998 97.7949 143.849 104.964 135.226L106.03 133.943C110.26 128.857 111.963 122.505 111.28 116.412C124.326 115.81 134.718 105.042 134.718 91.8466V90.09C134.718 83.9375 132.459 78.3127 128.725 74C124.45 78.9366 118.243 82.1541 111.28 82.4758C111.963 88.5687 110.26 94.92 106.03 100.007L104.964 101.289C97.7949 109.912 85.7273 112.061 76.1812 107.054C75.7729 107.649 75.3334 108.231 74.8628 108.797L73.7965 110.08C65.552 119.996 50.83 121.351 40.9138 113.107C33.3356 106.806 30.7574 96.7221 33.6429 87.8913C30.7723 89.0832 27.6241 89.7412 24.3222 89.7412C17.0634 89.7412 10.5472 86.5613 6.09079 81.5187Z" fill="#458244"/>
</svg>
