<svg width="105" height="145" viewBox="0 0 105 145" fill="none" xmlns="http://www.w3.org/2000/svg">
<path d="M46.5829 54H58.1585L67.5927 144.11H37L46.5829 54Z" fill="#93642D"/>
<path d="M46.5 54H58L63 102.5H41.5L46.5 54Z" fill="#714D22"/>
<path fill-rule="evenodd" clip-rule="evenodd" d="M62.2088 12.6967C64.9575 11.1455 68.1321 10.2605 71.5133 10.2605C81.9849 10.2605 90.4738 18.7494 90.4738 29.2209V30.5752C90.4738 31.2869 90.4346 31.9894 90.3582 32.6807C98.2495 34.9744 104.017 42.2587 104.017 50.89V52.2443C104.017 62.4176 96.0049 70.7195 85.9465 71.1843C86.4729 75.8818 85.1598 80.7786 81.8992 84.7003L81.0771 85.6891C75.5497 92.3373 66.2457 93.9944 58.8858 90.1338C58.571 90.5928 58.2322 91.0413 57.8693 91.4778L57.0472 92.4666C50.6909 100.112 39.3404 101.157 31.6952 94.8003C25.8524 89.9425 23.8647 82.1679 26.0894 75.3595C23.8762 76.2785 21.4489 76.7858 18.9032 76.7858C8.54672 76.7858 0.151123 68.3902 0.151123 58.0337V56.6942C0.151123 47.6883 6.49977 40.1652 14.9658 38.3562C14.9122 37.7789 14.8849 37.194 14.8849 36.6027V35.2633C14.8849 25.1242 22.9317 16.8645 32.9874 16.5222C34.403 9.38797 40.6969 4.0098 48.2469 4.0098C54.3727 4.0098 59.6715 7.55031 62.2088 12.6967Z" fill="#66A865"/>
<path fill-rule="evenodd" clip-rule="evenodd" d="M33.6934 15.3311C36.3383 8.94211 43.6617 5.90696 50.0507 8.55187C56.4396 11.1968 59.4748 18.5202 56.8299 24.9092L56.4878 25.7355C56.308 26.1697 56.1067 26.5884 55.8854 26.9909C60.1208 30.3835 61.7998 36.2846 59.6197 41.5508L59.2776 42.3771C56.6327 48.766 49.3093 51.8012 42.9203 49.1563C39.4652 47.7259 36.9909 44.9273 35.8654 41.6481C32.7515 43.1722 29.0231 43.403 25.5679 41.9727C19.179 39.3278 16.1438 32.0044 18.7887 25.6154L19.1308 24.7891C21.4308 19.2333 27.2687 16.2136 32.9534 17.2598C33.0678 16.89 33.2003 16.5221 33.3513 16.1574L33.6934 15.3311Z" fill="#83C082"/>
<path fill-rule="evenodd" clip-rule="evenodd" d="M2.87708 47.4639C1.0545 50.3552 0 53.7793 0 57.4497V58.7891C0 69.1456 8.3956 77.5412 18.7521 77.5412C21.2978 77.5412 23.7251 77.034 25.9382 76.115C23.7136 82.9234 25.7013 90.698 31.5441 95.5557C39.1893 101.912 50.5398 100.867 56.8961 93.222L57.7182 92.2332C58.0811 91.7968 58.4199 91.3482 58.7347 90.8892C66.0946 94.7498 75.3985 93.0928 80.9259 86.4446L81.748 85.4558C85.0087 81.534 86.3217 76.6372 85.7954 71.9397C95.8538 71.475 103.866 63.1731 103.866 52.9998V51.6455C103.866 49.6794 103.567 47.7832 103.011 46C99.8111 51.138 94.2207 54.633 87.7954 54.9299C88.3217 59.6274 87.0087 64.5242 83.748 68.446L82.9259 69.4348C77.3985 76.083 68.0946 77.74 60.7347 73.8794C60.4199 74.3384 60.0811 74.787 59.7182 75.2234L58.8961 76.2122C52.5398 83.8574 41.1893 84.9023 33.5441 78.5459C27.7013 73.6882 25.7136 65.9136 27.9382 59.1052C25.7251 60.0242 23.2978 60.5314 20.7521 60.5314C12.3773 60.5314 5.2847 55.0414 2.87708 47.4639Z" fill="#458244"/>
</svg>
