<svg width="266" height="468" viewBox="0 0 266 468" fill="none" xmlns="http://www.w3.org/2000/svg">
<g filter="url(#filter0_dd_161_333)">
<ellipse cx="138" cy="435" rx="68" ry="25" fill="#D5C8AD"/>
</g>
<g filter="url(#filter1_d_161_333)">
<path d="M127.492 263.176H149.626L167.665 435.478H109.168L127.492 263.176Z" fill="#93642D"/>
<path d="M127.333 263.176H149.323L158.883 355.915H117.772L127.333 263.176Z" fill="#714D22"/>
<path fill-rule="evenodd" clip-rule="evenodd" d="M40.5418 168.425C40.5418 150.159 55.3492 135.352 73.615 135.352H100.484C118.749 135.352 133.557 150.159 133.557 168.425V188.503H133.703C151.969 188.503 166.776 203.311 166.776 221.577V251.767C166.776 270.033 151.969 284.84 133.703 284.84H106.835C98.6515 284.84 91.1626 281.868 85.3882 276.945C79.6138 281.868 72.1249 284.84 63.9418 284.84H37.0732C18.8074 284.84 4 270.033 4 251.767V221.577C4 203.311 18.8074 188.503 37.0732 188.503H40.5418V168.425Z" fill="#66A865"/>
<path fill-rule="evenodd" clip-rule="evenodd" d="M137.709 332.631C126.032 346.677 105.179 348.596 91.1338 336.919L73.3327 322.119C59.2873 310.441 57.3677 289.588 69.0453 275.543L80.5361 261.722C67.3091 249.916 65.7191 229.659 77.1439 215.918L93.9829 195.664C105.66 181.619 126.513 179.699 140.558 191.377L158.36 206.177C164.822 211.55 168.718 218.865 169.902 226.567C177.69 226.326 185.594 228.82 192.057 234.193L209.858 248.993C223.903 260.671 225.823 281.523 214.145 295.569L197.306 315.822C185.629 329.868 164.776 331.787 150.731 320.11L149.187 318.826L137.709 332.631Z" fill="#66A865"/>
<path fill-rule="evenodd" clip-rule="evenodd" d="M133.963 152.923C133.963 134.657 148.77 119.849 167.036 119.849H194.938C213.204 119.849 228.011 134.657 228.011 152.923V173.591H228.527C246.793 173.591 261.6 188.399 261.6 206.665V237.926C261.6 256.192 246.793 270.999 228.527 270.999H200.625C192.502 270.999 185.064 268.071 179.308 263.213C173.551 268.071 166.113 270.999 157.99 270.999H130.088C111.822 270.999 97.0151 256.191 97.0151 237.926V206.665C97.0151 188.399 111.822 173.591 130.088 173.591H133.963V152.923Z" fill="#66A865"/>
<path fill-rule="evenodd" clip-rule="evenodd" d="M116.836 86.8277C116.836 68.5619 131.644 53.7545 149.91 53.7545H177.812C196.078 53.7545 210.885 68.5619 210.885 86.8277V107.497H211.4C229.666 107.497 244.473 122.304 244.473 140.57V171.831C244.473 190.097 229.666 204.904 211.4 204.904H183.498C175.376 204.904 167.938 201.976 162.181 197.118C156.424 201.976 148.986 204.904 140.864 204.904H112.962C94.6958 204.904 79.8884 190.097 79.8884 171.831V140.57C79.8884 122.304 94.6958 107.497 112.962 107.497H116.836V86.8277Z" fill="#66A865"/>
<path fill-rule="evenodd" clip-rule="evenodd" d="M49.6132 114.596C49.6132 96.3298 64.4205 81.5225 82.6864 81.5225H93.708C111.974 81.5225 126.781 96.3298 126.781 114.596V126.076C142.423 128.701 154.341 142.304 154.341 158.692V172.469C154.341 190.735 139.533 205.542 121.268 205.542H110.246C101.092 205.542 92.8072 201.824 86.8189 195.815C80.8307 201.824 72.5456 205.542 63.3919 205.542H52.3703C34.1045 205.542 19.2971 190.735 19.2971 172.469V158.692C19.2971 141.354 32.6374 127.133 49.6132 125.732V114.596Z" fill="#66A865"/>
<path fill-rule="evenodd" clip-rule="evenodd" d="M177.366 86.9249C189.911 100.201 189.318 121.134 176.042 133.679L168.031 141.248C154.755 153.794 133.822 153.201 121.277 139.925L113.392 131.581C100.221 140.415 82.2152 138.713 70.9603 126.803L61.4976 116.788C48.9525 103.512 49.5452 82.5798 62.8215 70.0346L70.8324 62.4649C77.4856 56.1781 86.0615 53.1907 94.5411 53.4454C94.7664 44.965 98.2343 36.5717 104.888 30.2848L112.899 22.715C126.175 10.1699 147.107 10.7626 159.652 24.0389L169.115 34.053C181.022 46.6544 181.094 66.1534 169.717 78.8308L177.366 86.9249Z" fill="#83C082"/>
<path fill-rule="evenodd" clip-rule="evenodd" d="M261.521 205.228C255.948 215.628 244.975 222.701 232.351 222.701H231.037C229.768 226.205 227.881 229.554 225.361 232.585L208.522 252.838C196.845 266.883 175.992 268.803 161.947 257.125L160.403 255.842L148.925 269.647C137.247 283.692 116.395 285.612 102.349 273.934L84.5484 259.134C77.3705 253.166 73.3595 244.802 72.7118 236.175C71.0984 236.417 69.4468 236.542 67.7659 236.542H40.8973C23.7221 236.542 9.60464 223.451 7.98001 206.702C5.44158 211.383 4 216.746 4 222.445V252.635C4 270.901 18.8074 285.709 37.0732 285.709H63.5886C58.6534 298.573 62.149 313.688 73.3328 322.987L91.1339 337.787C105.179 349.464 126.032 347.545 137.709 333.499L149.187 319.695L150.731 320.978C164.776 332.655 185.629 330.736 197.306 316.691L214.145 296.437C220.075 289.305 222.499 280.417 221.609 271.867H228.527C246.793 271.867 261.6 257.06 261.6 238.794V207.533C261.6 206.758 261.573 205.99 261.521 205.228Z" fill="#458244"/>
</g>
<defs>
<filter id="filter0_dd_161_333" x="66" y="410" width="144" height="58" filterUnits="userSpaceOnUse" color-interpolation-filters="sRGB">
<feFlood flood-opacity="0" result="BackgroundImageFix"/>
<feColorMatrix in="SourceAlpha" type="matrix" values="0 0 0 0 0 0 0 0 0 0 0 0 0 0 0 0 0 0 127 0" result="hardAlpha"/>
<feOffset dy="4"/>
<feGaussianBlur stdDeviation="2"/>
<feComposite in2="hardAlpha" operator="out"/>
<feColorMatrix type="matrix" values="0 0 0 0 0 0 0 0 0 0 0 0 0 0 0 0 0 0 0.25 0"/>
<feBlend mode="normal" in2="BackgroundImageFix" result="effect1_dropShadow_161_333"/>
<feColorMatrix in="SourceAlpha" type="matrix" values="0 0 0 0 0 0 0 0 0 0 0 0 0 0 0 0 0 0 127 0" result="hardAlpha"/>
<feOffset dy="4"/>
<feGaussianBlur stdDeviation="2"/>
<feComposite in2="hardAlpha" operator="out"/>
<feColorMatrix type="matrix" values="0 0 0 0 0 0 0 0 0 0 0 0 0 0 0 0 0 0 0.25 0"/>
<feBlend mode="normal" in2="effect1_dropShadow_161_333" result="effect2_dropShadow_161_333"/>
<feBlend mode="normal" in="SourceGraphic" in2="effect2_dropShadow_161_333" result="shape"/>
</filter>
<filter id="filter1_d_161_333" x="0" y="13.6806" width="265.6" height="429.798" filterUnits="userSpaceOnUse" color-interpolation-filters="sRGB">
<feFlood flood-opacity="0" result="BackgroundImageFix"/>
<feColorMatrix in="SourceAlpha" type="matrix" values="0 0 0 0 0 0 0 0 0 0 0 0 0 0 0 0 0 0 127 0" result="hardAlpha"/>
<feOffset dy="4"/>
<feGaussianBlur stdDeviation="2"/>
<feComposite in2="hardAlpha" operator="out"/>
<feColorMatrix type="matrix" values="0 0 0 0 0 0 0 0 0 0 0 0 0 0 0 0 0 0 0.25 0"/>
<feBlend mode="normal" in2="BackgroundImageFix" result="effect1_dropShadow_161_333"/>
<feBlend mode="normal" in="SourceGraphic" in2="effect1_dropShadow_161_333" result="shape"/>
</filter>
</defs>
</svg>
